<svg aria-hidden="true" style="position: absolute; width: 0; height: 0; overflow: hidden;" version="1.1" xmlns="http://www.w3.org/2000/svg" xmlns:xlink="http://www.w3.org/1999/xlink">
<defs>

<symbol id="drag" viewBox="0 0 18 32">
<path d="M2.501 0.978c0.796-0.173 1.662-0.038 2.354 0.397 0.813 0.493 1.381 1.369 1.494 2.314 0.111 0.832-0.128 1.702-0.646 2.363-0.524 0.678-1.331 1.131-2.186 1.212-1.029 0.116-2.097-0.314-2.761-1.108-0.657-0.76-0.909-1.841-0.669-2.815 0.269-1.163 1.247-2.115 2.413-2.363z"></path>
<path d="M14.427 0.973c0.815-0.171 1.696-0.017 2.393 0.441 0.779 0.497 1.319 1.351 1.432 2.269 0.113 0.841-0.13 1.722-0.66 2.386-0.564 0.723-1.453 1.179-2.371 1.21-0.946 0.045-1.899-0.363-2.521-1.075-0.654-0.728-0.933-1.767-0.74-2.726 0.227-1.229 1.243-2.257 2.467-2.505z"></path>
<path d="M2.871 12.831c0.838-0.084 1.706 0.175 2.35 0.719 0.704 0.578 1.137 1.47 1.152 2.382 0.030 0.98-0.428 1.957-1.197 2.564-0.609 0.495-1.41 0.743-2.193 0.692-0.941-0.053-1.841-0.555-2.387-1.322-0.541-0.74-0.728-1.72-0.51-2.609 0.292-1.29 1.466-2.313 2.784-2.424z"></path>
<path d="M14.801 12.829c0.732-0.069 1.487 0.122 2.093 0.54 0.793 0.536 1.32 1.446 1.383 2.403 0.075 0.935-0.295 1.89-0.975 2.536-0.625 0.607-1.511 0.932-2.38 0.88-0.926-0.044-1.816-0.523-2.371-1.266-0.602-0.783-0.795-1.855-0.518-2.802 0.34-1.234 1.491-2.189 2.768-2.291z"></path>
<path d="M2.576 24.776c0.823-0.16 1.709 0.013 2.401 0.489 0.741 0.499 1.256 1.323 1.369 2.21 0.108 0.777-0.083 1.592-0.532 2.237-0.504 0.74-1.333 1.252-2.225 1.356-1.022 0.139-2.096-0.264-2.778-1.037-0.688-0.754-0.966-1.85-0.731-2.843 0.263-1.203 1.286-2.189 2.496-2.413z"></path>
<path d="M14.501 24.771c0.77-0.144 1.592 0.003 2.259 0.418 0.783 0.476 1.339 1.306 1.478 2.212 0.135 0.829-0.074 1.709-0.574 2.385-0.532 0.737-1.394 1.225-2.301 1.296-0.978 0.092-1.984-0.307-2.638-1.039-0.678-0.736-0.965-1.8-0.76-2.778 0.239-1.244 1.289-2.276 2.537-2.495z"></path>
</symbol>
  <symbol  xmlns="http://www.w3.org/2000/svg" viewBox="0 0 26 26" id="delete">
    <path d="M8.71331 17.6667C8.71331 18.4033 9.35259 19 10.1419 19H15.8562C16.6455 19 17.2847 18.4033 17.2847 17.6667V9.66667H8.71331V17.6667ZM17.999 7.66667H15.499L14.7847 7H11.2133L10.499 7.66667H7.99902V9H17.999V7.66667Z" ></path>
  </symbol>
</defs>
</svg>
